<svg width="22" height="24" viewBox="0 0 22 24" fill="none" xmlns="http://www.w3.org/2000/svg">
<path d="M21.1045 24.0001H18.6726C18.6726 19.8975 15.2315 16.561 10.9989 16.561C6.76625 16.561 3.32639 19.8987 3.32639 24.0001H0.894531C0.894531 18.5551 5.42873 14.1292 11.0001 14.1292C16.5703 14.1292 21.1045 18.5551 21.1045 24.0001Z" fill="#FCFDFE"/>
<path d="M11.0002 13.3387C7.32443 13.3387 4.33203 10.3451 4.33203 6.66937C4.33082 2.9924 7.32322 0 11.0002 0C14.6784 0 17.6708 2.99118 17.6708 6.66937C17.6708 10.3476 14.6784 13.3387 11.0002 13.3387ZM11.0002 2.43186C8.66317 2.43186 6.76267 4.33235 6.76267 6.66937C6.76267 9.00638 8.66317 10.9069 11.0002 10.9069C13.3384 10.9069 15.2389 9.00638 15.2389 6.66937C15.2389 4.33235 13.336 2.43186 11.0002 2.43186Z" fill="#FCFDFE"/>
</svg>
