<svg width="11" height="16" viewBox="0 0 11 16" fill="none" xmlns="http://www.w3.org/2000/svg">
<path d="M10.2209 6.67512H9.51016V4.51093C9.51016 2.29951 7.71105 0.5 5.49975 0.5C3.28764 0.5 1.48886 2.29927 1.48886 4.51093V6.67512H0.778338C0.369407 6.67512 0.0380859 7.0066 0.0380859 7.41537V14.7598C0.0380859 15.1686 0.369407 15.5 0.778338 15.5H10.221C10.629 15.5 10.9612 15.1686 10.9612 14.7598V7.41537C10.9612 7.0066 10.629 6.67512 10.2209 6.67512ZM2.9692 4.51093C2.9692 3.11536 4.10418 1.98038 5.49971 1.98038C6.89492 1.98038 8.02994 3.11536 8.02994 4.51093V6.67512H2.9692V4.51093Z" fill="#D9D9D9"/>
</svg>
