<svg width="132" height="109" viewBox="0 0 132 109" fill="none" xmlns="http://www.w3.org/2000/svg">
<path d="M81.4018 77.731H50.5982C49.1805 77.731 48.0312 78.8804 48.0312 80.2979C48.0312 81.7154 49.1805 82.8649 50.5982 82.8649H81.4018C82.8193 82.8649 83.9688 81.7154 83.9688 80.2979C83.9688 78.8804 82.8193 77.731 81.4018 77.731Z" fill="#C4C4C4"/>
<path d="M66.0006 108.535C67.4183 108.535 68.5675 107.386 68.5675 105.968C68.5675 104.55 67.4183 103.401 66.0006 103.401C64.5829 103.401 63.4336 104.55 63.4336 105.968C63.4336 107.386 64.5829 108.535 66.0006 108.535Z" fill="#C4C4C4"/>
<path d="M129.148 87.999H124.014V39.2267C124.014 34.9804 120.559 31.5258 116.313 31.5258H109.639V18.6909C109.639 17.2735 108.489 16.124 107.072 16.124H99.371V3.28914C99.371 2.39943 98.9102 1.57313 98.1537 1.10543C97.3972 0.638239 96.4523 0.595114 95.6563 0.992994L66.0004 15.8211L36.3448 0.99325C35.5488 0.595114 34.6041 0.637982 33.8474 1.10568C33.0904 1.57338 32.6299 2.39943 32.6299 3.28914V16.124H24.929C23.5113 16.124 22.362 17.2735 22.362 18.6909V31.5258H15.6879C11.4416 31.5258 7.98703 34.9804 7.98703 39.2267V87.999H2.8531C1.43536 87.999 0.286133 89.1485 0.286133 90.5659C0.286133 100.474 8.34691 108.535 18.2549 108.535H54.4491C55.8668 108.535 57.016 107.385 57.016 105.968C57.016 104.55 55.8668 103.401 54.4491 103.401H18.2549C12.0567 103.401 6.87065 98.984 5.67778 93.1329H48.0317V95.6999C48.0317 97.1173 49.1809 98.2668 50.5986 98.2668H81.4022C82.8197 98.2668 83.9692 97.1173 83.9692 95.6999V93.1303H126.323C125.13 98.984 119.944 103.401 113.746 103.401H77.5518C76.1343 103.401 74.9848 104.55 74.9848 105.968C74.9848 107.385 76.1343 108.535 77.5518 108.535H113.746C123.654 108.535 131.715 100.474 131.715 90.5659C131.715 89.1485 130.565 87.999 129.148 87.999ZM104.505 21.2579V67.4633H76.8741L97.9517 56.9243C98.8216 56.4895 99.371 55.6008 99.371 54.6284V21.2579H104.505ZM94.237 53.0418L68.5674 65.8766V20.2773L94.237 7.44249V53.0418ZM37.7638 7.44275L63.4335 20.2776V65.8769L37.7638 53.0421V7.44275ZM27.496 21.2579H32.6299V54.6284C32.6299 55.6008 33.1792 56.4895 34.0489 56.9243L55.1265 67.4633H27.496V21.2579ZM81.4022 87.999C79.9847 87.999 78.8352 89.1485 78.8352 90.5659V93.1329H53.1656V90.5659C53.1656 89.1485 52.0164 87.999 50.5986 87.999H13.121V39.2267C13.121 37.8112 14.2725 36.6597 15.6879 36.6597H22.362V70.0302C22.362 71.4477 23.5113 72.5972 24.929 72.5972H107.072C108.489 72.5972 109.639 71.4477 109.639 70.0302V36.6597H116.313C117.728 36.6597 118.88 37.8112 118.88 39.2267V87.999H81.4022Z" fill="#C4C4C4"/>
</svg>
