<svg width="146" height="131" viewBox="0 0 146 131" fill="none" xmlns="http://www.w3.org/2000/svg">
<path d="M69.2797 53.8799H32.859C27.6417 53.8799 23.3975 58.1241 23.3975 63.3414V88.4675C23.3975 93.6847 27.6417 97.929 32.859 97.929H69.2797C74.497 97.929 78.7412 93.6847 78.7412 88.4675V63.3414C78.7412 58.1241 74.497 53.8799 69.2797 53.8799ZM73.0939 88.4675C73.0939 90.5705 71.3827 92.2817 69.2797 92.2817H32.859C30.7559 92.2817 29.0448 90.5705 29.0448 88.4675V63.3414C29.0448 61.2383 30.7559 59.5272 32.859 59.5272H69.2797C71.3827 59.5272 73.0939 61.2383 73.0939 63.3414V88.4675Z" fill="#C4C4C4"/>
<path d="M56.2307 73.4594L48.7316 69.1299C47.8579 68.6253 46.7816 68.6253 45.9079 69.1299C45.0343 69.6342 44.4961 70.5666 44.4961 71.5752V80.2342C44.4961 81.2429 45.0343 82.1752 45.9079 82.6795C46.3447 82.932 46.8321 83.0579 47.3198 83.0579C47.8074 83.0579 48.2948 82.932 48.7316 82.6795L56.2307 78.35C57.1043 77.8457 57.6425 76.9133 57.6425 75.9047C57.6425 74.8961 57.1043 73.9637 56.2307 73.4594Z" fill="#C4C4C4"/>
<path d="M143.765 19.4681L108.504 1.11434C107.686 0.689099 106.714 0.689099 105.896 1.11434L70.6345 19.4681C69.7004 19.9544 69.1145 20.9198 69.1145 21.9727C69.1145 23.0257 69.7004 23.9911 70.6345 24.4773L84.2118 31.5444V37.5029H27.5386C17.1069 37.5029 8.62012 45.9897 8.62012 56.4214V108.659H3.53753C1.9783 108.659 0.713867 109.924 0.713867 111.483C0.713867 121.759 9.07388 130.119 19.35 130.119H111.401C121.678 130.119 130.038 121.759 130.038 111.483C130.038 109.924 128.773 108.659 127.214 108.659H122.131V56.4214C122.131 56.0255 122.114 55.6302 122.09 55.2352L128.468 52.5259C129.511 52.0831 130.188 51.0598 130.188 49.927V31.5444L139.638 26.6256V43.9072C139.638 45.4664 140.902 46.7309 142.462 46.7309C144.021 46.7309 145.285 45.4664 145.285 43.9072V21.9727C145.285 20.9195 144.699 19.9541 143.765 19.4681ZM116.484 108.659H78.0822C76.5229 108.659 75.2585 109.924 75.2585 111.483C75.2585 113.042 76.5229 114.306 78.0822 114.306H124.081C122.788 120.115 117.594 124.472 111.401 124.472H19.35C13.1575 124.472 7.96333 120.115 6.67038 114.306H52.6692C54.2285 114.306 55.4929 113.042 55.4929 111.483C55.4929 109.924 54.2285 108.659 52.6692 108.659H14.2674V56.4214C14.2674 49.1036 20.2208 43.1502 27.5386 43.1502H84.2118V49.927C84.2118 51.0598 84.8886 52.0831 85.9317 52.5259L106.096 61.0909C106.449 61.2405 106.824 61.3156 107.2 61.3156C107.576 61.3156 107.951 61.2405 108.304 61.0909L116.484 57.6164V108.659ZM124.541 48.0585L107.2 55.4243L89.8591 48.0585V34.4838L105.896 42.8311C106.305 43.0437 106.752 43.1502 107.2 43.1502C107.648 43.1502 108.095 43.0437 108.504 42.8311L124.541 34.4838V48.0585ZM107.2 37.1431L78.0539 21.9727L107.2 6.80204L136.346 21.9727L107.2 37.1431Z" fill="#C4C4C4"/>
<path d="M105.203 19.9763C104.678 20.5015 104.376 21.23 104.376 21.9726C104.376 22.7152 104.678 23.4437 105.203 23.9686C105.729 24.4938 106.457 24.7962 107.2 24.7962C107.942 24.7962 108.671 24.4941 109.196 23.9686C109.721 23.4437 110.023 22.7152 110.023 21.9726C110.023 21.23 109.721 20.5015 109.196 19.9763C108.671 19.4511 107.945 19.1489 107.2 19.1489C106.457 19.1492 105.729 19.4511 105.203 19.9763Z" fill="#C4C4C4"/>
<path d="M105.66 92.2817H90.224C88.6648 92.2817 87.4004 93.5462 87.4004 95.1054C87.4004 96.6646 88.6648 97.9291 90.224 97.9291H105.66C107.219 97.9291 108.484 96.6646 108.484 95.1054C108.484 93.5462 107.219 92.2817 105.66 92.2817Z" fill="#C4C4C4"/>
<path d="M105.66 78.7285H90.224C88.6648 78.7285 87.4004 79.993 87.4004 81.5522C87.4004 83.1114 88.6648 84.3758 90.224 84.3758H105.66C107.219 84.3758 108.484 83.1114 108.484 81.5522C108.484 79.993 107.219 78.7285 105.66 78.7285Z" fill="#C4C4C4"/>
<path d="M65.3754 108.659C64.6328 108.659 63.9043 108.961 63.3791 109.487C62.8539 110.012 62.5518 110.737 62.5518 111.483C62.5518 112.225 62.8536 112.954 63.3791 113.479C63.9043 114.004 64.6328 114.306 65.3754 114.306C66.118 114.306 66.8465 114.004 67.3715 113.479C67.8969 112.954 68.1991 112.225 68.1991 111.483C68.1991 110.74 67.8969 110.012 67.3715 109.487C66.8465 108.961 66.118 108.659 65.3754 108.659Z" fill="#C4C4C4"/>
</svg>
