<svg width="22" height="13" viewBox="0 0 22 13" fill="none" xmlns="http://www.w3.org/2000/svg">
<path d="M18.2561 7.359C17.9004 6.90983 18.0021 6.71 18.2561 6.3085C18.2606 6.30392 21.1968 2.24675 21.4993 0.870833L21.5012 0.869916C21.6515 0.3685 21.5012 0 20.7742 0H18.3688C17.7564 0 17.4741 0.31625 17.3228 0.670083C17.3228 0.670083 16.0981 3.60158 14.3656 5.50183C13.8064 6.05092 13.5479 6.22692 13.2426 6.22692C13.0923 6.22692 12.8585 6.05092 12.8585 5.5495V0.869916C12.8585 0.268583 12.6871 0 12.1802 0H8.39787C8.01378 0 7.78552 0.2805 7.78552 0.54175C7.78552 1.11192 8.6518 1.243 8.74164 2.84717V6.32775C8.74164 7.09042 8.60322 7.23067 8.29612 7.23067C7.47843 7.23067 5.49377 4.28725 4.31765 0.9185C4.08022 0.264917 3.8483 0.0009166 3.23136 0.0009166H0.825029C0.138421 0.0009166 0 0.317167 0 0.671C0 1.29617 0.817695 4.40458 3.80246 8.51125C5.7917 11.3144 8.59313 12.8333 11.1416 12.8333C12.6734 12.8333 12.8604 12.496 12.8604 11.9157C12.8604 9.23725 12.7219 8.98425 13.4892 8.98425C13.8449 8.98425 14.4573 9.16025 15.8873 10.5123C17.5218 12.1156 17.7904 12.8333 18.7052 12.8333H21.1106C21.7963 12.8333 22.1438 12.496 21.9439 11.8305C21.4865 10.4307 18.3954 7.5515 18.2561 7.359Z" fill="white"/>
</svg>
