<svg width="22" height="16" viewBox="0 0 22 16" fill="none" xmlns="http://www.w3.org/2000/svg">
<path d="M20.8768 2.84509C20.6391 1.9615 19.9424 1.26498 19.059 1.02705C17.445 0.585449 10.989 0.585449 10.989 0.585449C10.989 0.585449 4.53324 0.585449 2.91927 1.01031C2.05281 1.24798 1.33916 1.96162 1.10149 2.84509C0.676758 4.45893 0.676758 7.80584 0.676758 7.80584C0.676758 7.80584 0.676758 11.1696 1.10149 12.7666C1.33942 13.65 2.03581 14.3466 2.9194 14.5845C4.55024 15.0262 10.9893 15.0262 10.9893 15.0262C10.9893 15.0262 17.445 15.0262 19.059 14.6014C19.9426 14.3636 20.6391 13.667 20.877 12.7836C21.3016 11.1696 21.3016 7.82283 21.3016 7.82283C21.3016 7.82283 21.3186 4.45893 20.8768 2.84509ZM8.93355 10.8978V4.71385L14.302 7.80584L8.93355 10.8978Z" fill="white"/>
</svg>
